<svg xmlns="http://www.w3.org/2000/svg" viewBox="0 0 190.05 226.32"><g id="ea3a07f1-217e-4b8a-a240-e21674cecf6e" data-name="Calque 2"><g id="be6ca734-f421-40e9-88f4-00a416fd4529" data-name="Calque 1"><rect x="2.1" y="121.76" width="29.22" height="6.11"/><path d="M2.13,133.5l6.37,0,.18,45.44-6.38,0Zm3.09,0,26.1-.1,0,6.07-26.09.09Zm.08,19.85L28,153.25l0,6.06-22.66.09Zm.07,19.53,26.1-.1,0,6.06-26.09.1Z"/><path d="M71.52,154.21l0,7.94a19.46,19.46,0,0,1-1.93,8.93,14.38,14.38,0,0,1-5.56,6,16.38,16.38,0,0,1-8.35,2.14,17.33,17.33,0,0,1-8.46-2,13.89,13.89,0,0,1-5.66-5.58,17,17,0,0,1-2-8.4l-.06-13.41A19.32,19.32,0,0,1,41.44,141,14.26,14.26,0,0,1,47,135a16.32,16.32,0,0,1,8.36-2.14,15.69,15.69,0,0,1,7.21,1.65,15.18,15.18,0,0,1,5.53,4.71,17.77,17.77,0,0,1,3,7.08l-6.91,0a9.8,9.8,0,0,0-1.92-3.92,9.1,9.1,0,0,0-3.17-2.48,8.7,8.7,0,0,0-3.75-.85,9,9,0,0,0-4.93,1.36,8.89,8.89,0,0,0-3.27,3.78A13,13,0,0,0,46,149.84l.05,13.4a10.69,10.69,0,0,0,1.2,5.14,8.41,8.41,0,0,0,3.38,3.41,10,10,0,0,0,5,1.2,9.51,9.51,0,0,0,4.93-1.29A8.4,8.4,0,0,0,63.89,168,13.12,13.12,0,0,0,65,162.3v-2l-9.22,0,0-6.09Z"/><path d="M92.25,133.16l5.44,0,16.92,45.37-6.87,0L95,141.93,82.55,178.64l-6.87,0ZM83.33,162.6l23.91-.09,0,6.06-23.9.09Z"/><path d="M125.69,177a13.11,13.11,0,0,1-5.48-5.76,20.43,20.43,0,0,1-1.91-9.14l-.11-29,6.38,0,.11,29.22q0,5,2.53,7.67a9.1,9.1,0,0,0,7.07,2.7,9.2,9.2,0,0,0,7.1-2.75c1.67-1.82,2.5-4.38,2.48-7.7L143.75,133l6.38,0,.11,29a20.55,20.55,0,0,1-1.84,9.15,13,13,0,0,1-5.45,5.8,19.75,19.75,0,0,1-17.26.07Z"/><path d="M170.7,152.33,182,132.82l7.16,0-14.94,24.65-12.11,20.89-7.15,0Zm.31,6-1-1.56-14.84-23.85,7.16,0,11,18.46,1,1.69,15.63,25.19-7.16,0Z"/><path d="M6.67,225.93a15.32,15.32,0,0,1-3.57-1.21,15.09,15.09,0,0,1-3.1-2l2.56-3.18a11.64,11.64,0,0,0,3.73,2.18,12.81,12.81,0,0,0,4.4.71,8.85,8.85,0,0,0,5-1.21,3.79,3.79,0,0,0,1.75-3.36v0a3.51,3.51,0,0,0-.81-2.44,4.82,4.82,0,0,0-2.08-1.33,22.68,22.68,0,0,0-3.28-.79l-.13,0-.13,0-.3-.06A31.7,31.7,0,0,1,5.85,212a6.72,6.72,0,0,1-3.18-2.32,7.71,7.71,0,0,1-1.34-4.81v0a8.62,8.62,0,0,1,1.21-4.68,7.64,7.64,0,0,1,3.57-3,14.33,14.33,0,0,1,5.66-1,14.11,14.11,0,0,1,3.11.34,15,15,0,0,1,3,1,17.58,17.58,0,0,1,2.94,1.7l-2.34,3.3a13.55,13.55,0,0,0-3.37-1.84,9.67,9.67,0,0,0-3.36-.61,7.93,7.93,0,0,0-4.69,1.23,4,4,0,0,0-1.66,3.42v0a3.22,3.22,0,0,0,.87,2.39,5.21,5.21,0,0,0,2.16,1.28,30.59,30.59,0,0,0,3.58.85l.15,0,.16,0,.22,0,.22,0a25.08,25.08,0,0,1,4.48,1.28,7,7,0,0,1,3,2.41,7.72,7.72,0,0,1,1.23,4.57v0a8.23,8.23,0,0,1-1.26,4.62,8,8,0,0,1-3.7,2.94,15.18,15.18,0,0,1-5.84,1A20.14,20.14,0,0,1,6.67,225.93Z"/><path d="M34.13,196.42h3.53l11,29.46H44.18l-8.27-23.76L27.83,226H23.36Zm-5.79,19.12,15.52-.06v3.93l-15.52.06Z"/><path d="M53,196.35h3.75l14.51,22.75-.48.53-.09-23.33,4.1,0,.11,29.48H71.1l-14.47-22.4.49-.53.09,23-4.1,0Z"/><path d="M87,225.62a14.78,14.78,0,0,1-6.67-3.22l2.57-3.17a11.64,11.64,0,0,0,3.72,2.17,13.06,13.06,0,0,0,4.4.72,8.83,8.83,0,0,0,5-1.21,3.82,3.82,0,0,0,1.75-3.36v0a3.52,3.52,0,0,0-.81-2.44,4.85,4.85,0,0,0-2.07-1.33,24.46,24.46,0,0,0-3.28-.79h-.13a.32.32,0,0,1-.14,0l-.3-.06a31.39,31.39,0,0,1-4.82-1.12A6.86,6.86,0,0,1,83,209.42a7.74,7.74,0,0,1-1.34-4.82v0a8.67,8.67,0,0,1,1.21-4.68,7.78,7.78,0,0,1,3.57-3,14.19,14.19,0,0,1,5.66-1,14.83,14.83,0,0,1,3.12.33,15.57,15.57,0,0,1,3,1,16.3,16.3,0,0,1,2.94,1.7l-2.34,3.29a13.88,13.88,0,0,0-3.37-1.84,9.38,9.38,0,0,0-3.35-.6,7.89,7.89,0,0,0-4.7,1.22,4,4,0,0,0-1.66,3.43v0a3.32,3.32,0,0,0,.87,2.39,5.31,5.31,0,0,0,2.16,1.28,33.16,33.16,0,0,0,3.58.84l.16,0,.15,0,.22,0,.22,0a24.21,24.21,0,0,1,4.48,1.29,6.89,6.89,0,0,1,3,2.41,7.68,7.68,0,0,1,1.23,4.57v0a8.08,8.08,0,0,1-1.26,4.62A8,8,0,0,1,96.92,225a15.27,15.27,0,0,1-5.85,1A18.78,18.78,0,0,1,87,225.62Z"/><path d="M118.83,196.1H123l.11,29.5h-4.14Zm2,0,16.94-.06,0,3.94-17,.06Zm0,12.89,14.71-.06v3.94l-14.71,0Zm0,12.68,16.94-.07v3.94l-16.94.06Z"/><path d="M163.88,209.55l0,5.15a12.59,12.59,0,0,1-1.25,5.79,9.24,9.24,0,0,1-3.61,3.89,10.48,10.48,0,0,1-5.42,1.39,11.31,11.31,0,0,1-5.5-1.26,9.16,9.16,0,0,1-3.67-3.63,11.16,11.16,0,0,1-1.32-5.45l0-8.71a12.52,12.52,0,0,1,1.25-5.78,9.28,9.28,0,0,1,3.61-3.88,10.58,10.58,0,0,1,5.42-1.39,10.24,10.24,0,0,1,4.68,1.06,9.81,9.81,0,0,1,3.59,3.07,11.44,11.44,0,0,1,2,4.59l-4.48,0a6.44,6.44,0,0,0-1.25-2.54,5.93,5.93,0,0,0-2.06-1.62,5.6,5.6,0,0,0-2.43-.55,5.9,5.9,0,0,0-3.21.89,5.78,5.78,0,0,0-2.12,2.45,8.44,8.44,0,0,0-.73,3.67l0,8.7a6.94,6.94,0,0,0,.78,3.33,5.51,5.51,0,0,0,2.19,2.22,6.63,6.63,0,0,0,3.26.78,6.18,6.18,0,0,0,3.2-.84,5.46,5.46,0,0,0,2.13-2.39,8.5,8.5,0,0,0,.73-3.71v-1.28l-6,0v-4Z"/><path d="M174.14,224.35a9.22,9.22,0,0,1-3.65-3.8,12.15,12.15,0,0,1-1.31-5.71l0-8.36a12.13,12.13,0,0,1,1.26-5.71,9.13,9.13,0,0,1,3.63-3.83,10.73,10.73,0,0,1,5.43-1.37,10.63,10.63,0,0,1,5.44,1.33,9.13,9.13,0,0,1,3.66,3.8,12.1,12.1,0,0,1,1.31,5.7l0,8.36a12.17,12.17,0,0,1-1.26,5.72,9.38,9.38,0,0,1-3.63,3.83,11.71,11.71,0,0,1-10.88,0Zm8.64-3.59a5.54,5.54,0,0,0,2.15-2.34,7.67,7.67,0,0,0,.74-3.5l0-8.64a7.78,7.78,0,0,0-.77-3.5,5.66,5.66,0,0,0-2.16-2.33,6.21,6.21,0,0,0-3.22-.8,6.14,6.14,0,0,0-3.21.83,5.54,5.54,0,0,0-2.15,2.34,7.67,7.67,0,0,0-.74,3.5l0,8.65a7.6,7.6,0,0,0,.77,3.49,5.54,5.54,0,0,0,2.16,2.33,6.68,6.68,0,0,0,6.43,0Z"/><path d="M87.62,88.66v20.46c-1-.41-1.79-.72-2.56-1.09C56.67,94.26,38.58,72,30.59,41.5A120.72,120.72,0,0,1,27,13.81,2.86,2.86,0,0,1,29,10.66c7.86-3.31,16.11-5.25,24.42-7A192.34,192.34,0,0,1,85.17,0c.7,0,1.4,0,2.39,0V62.78c0,.58,0,1.15.06,1.73l.06-.05H68.56c.69,3.15,1,5.86,1.88,8.33,3,8.15,8.63,13.72,17.23,15.92Zm-8.72-57c-8.54-5.61-21.18-5-28.84.4C57.15,38.13,70.78,38,78.9,31.68Z"/><path d="M102.43,20.46V0c1,.42,1.79.72,2.56,1.09q42.58,20.67,54.47,66.53a120.8,120.8,0,0,1,3.63,27.7A2.85,2.85,0,0,1,161,98.46c-7.86,3.32-16.11,5.25-24.42,7a192.34,192.34,0,0,1-31.73,3.68c-.7,0-1.4,0-2.39,0V46.34c0-.57,0-1.15-.06-1.72l-.06,0h19.12c-.69-3.15-.95-5.86-1.88-8.33-3-8.15-8.63-13.72-17.23-15.92Zm8.72,57c8.54,5.61,21.18,5,28.84-.4C132.9,71,119.27,71.14,111.15,77.44Z"/></g></g></svg>