<svg xmlns="http://www.w3.org/2000/svg" viewBox="0 0 346.47 104.62"><defs><style>.b746880c-160b-4391-9017-4487c8445b1b{fill:none;stroke:#000;stroke-miterlimit:10;stroke-width:3px;}</style></defs><g id="b1fb3b9b-ade0-493e-81ed-64c5a5169123" data-name="Calque 2"><g id="a093bac2-5792-43b4-9239-bada733ffe1e" data-name="Calque 1"><g id="e3495e32-9b10-46a9-8407-31406c3c4e41" data-name="ac5ca561-731f-4d4c-a50a-51f3d70f8aa0"><g id="b1764964-c18f-4a79-ad84-4ebd65bdd5a1" data-name="baab0a2b-0176-4be1-ad52-9f4d362e1c63"><rect x="158.55" y="0.13" width="29.22" height="6.11"/><path d="M158.58,11.87H165l.17,45.44h-6.38Zm3.09,0,26.1-.1v6.07l-26.09.09Zm.08,19.85,22.66-.09v6.06l-22.66.09Zm.07,19.53,26.1-.1v6.06l-26.09.1Z"/><path d="M227.94,32.58v7.94A19.54,19.54,0,0,1,226,49.45a14.37,14.37,0,0,1-5.56,6,16.27,16.27,0,0,1-8.35,2.14,17.41,17.41,0,0,1-8.46-2A13.89,13.89,0,0,1,198,50a17.21,17.21,0,0,1-2-8.4V28.2a19.21,19.21,0,0,1,2-8.88,14.25,14.25,0,0,1,5.56-6,16.27,16.27,0,0,1,8.35-2.14,15.69,15.69,0,0,1,7.21,1.65,15.25,15.25,0,0,1,5.53,4.71,17.66,17.66,0,0,1,3,7.08h-6.91a9.87,9.87,0,0,0-1.94-3.9,9,9,0,0,0-3.17-2.48,8.68,8.68,0,0,0-3.75-.85,9,9,0,0,0-4.88,1.39,8.88,8.88,0,0,0-3.27,3.78,13,13,0,0,0-1.13,5.65v13.4a10.71,10.71,0,0,0,1.2,5.11,8.47,8.47,0,0,0,3.38,3.41,10,10,0,0,0,5,1.2A9.47,9.47,0,0,0,217.05,50a8.27,8.27,0,0,0,3.27-3.68,13,13,0,0,0,1.15-5.64v-2h-9.21V32.63Z"/><path d="M248.71,11.53h5.43L271.06,56.9h-6.87L251.46,20.3,239,57h-6.87ZM239.79,41l23.9-.09v6.06l-23.9.09Z"/><path d="M282.14,55.33a13.15,13.15,0,0,1-5.48-5.76,20.6,20.6,0,0,1-1.91-9.14l-.11-29H281l.11,29.22q0,5,2.53,7.68a10.59,10.59,0,0,0,14.17-.06c1.67-1.82,2.5-4.38,2.49-7.7l-.12-29.21h6.38l.11,29a20.47,20.47,0,0,1-1.84,9.15,13.06,13.06,0,0,1-5.45,5.8,19.76,19.76,0,0,1-17.26.07Z"/><path d="M327.15,30.72l11.34-19.51h7.15L330.7,35.81,318.59,56.72h-7.15Zm.31,6-1-1.56L311.64,11.29h7.16l11,18.43,1,1.69L346.47,56.6h-7.16Z"/><path d="M163.12,104.3a15.5,15.5,0,0,1-3.57-1.21,15.34,15.34,0,0,1-3.1-2L159,97.91a11.61,11.61,0,0,0,3.72,2.18,12.88,12.88,0,0,0,4.4.71,8.92,8.92,0,0,0,5-1.2,3.82,3.82,0,0,0,1.75-3.37h0a3.49,3.49,0,0,0-.81-2.44,4.77,4.77,0,0,0-2.14-1.36,21.63,21.63,0,0,0-3.27-.79h-.27l-.3-.06a32,32,0,0,1-4.83-1.13,6.72,6.72,0,0,1-3.18-2.32,7.69,7.69,0,0,1-1.34-4.81h0A8.62,8.62,0,0,1,159,78.64a7.69,7.69,0,0,1,3.57-3,14,14,0,0,1,5.66-1,13.53,13.53,0,0,1,3.11.33,14.48,14.48,0,0,1,3,1,17.55,17.55,0,0,1,2.94,1.7l-2.3,3.25a13.63,13.63,0,0,0-3.37-1.84,9.61,9.61,0,0,0-3.36-.61,8,8,0,0,0-4.67,1.25,4,4,0,0,0-1.66,3.42h0a3.22,3.22,0,0,0,.87,2.39,5.22,5.22,0,0,0,2.19,1.28,31.55,31.55,0,0,0,3.58.85h.75a24.11,24.11,0,0,1,4.48,1.28,7,7,0,0,1,3,2.41,7.74,7.74,0,0,1,1.19,4.71h0a8.25,8.25,0,0,1-1.26,4.63,8.06,8.06,0,0,1-3.69,2.93,15.37,15.37,0,0,1-5.85,1A20.07,20.07,0,0,1,163.12,104.3Z"/><path d="M190.58,74.79h3.53l11,29.46h-4.46l-8.27-23.77-8.08,23.83h-4.47Zm-5.79,19.12,15.52-.06v3.93l-15.52.06Z"/><path d="M209.45,74.72h3.75l14.51,22.75-.48.53-.09-23.33h4.1l.11,29.48h-3.8L213.08,81.72l.49-.53.09,23h-4.1Z"/><path d="M243.48,104a14.86,14.86,0,0,1-3.57-1.2,15.34,15.34,0,0,1-3.1-2l2.57-3.17a11.4,11.4,0,0,0,3.72,2.17,13.14,13.14,0,0,0,4.4.72,8.85,8.85,0,0,0,5-1.21,3.8,3.8,0,0,0,1.75-3.36h0a3.51,3.51,0,0,0-.81-2.45,5,5,0,0,0-2.07-1.33,24.48,24.48,0,0,0-3.28-.79h-.29l-.3-.06a31.83,31.83,0,0,1-4.82-1.13,6.86,6.86,0,0,1-3.19-2.32A7.73,7.73,0,0,1,238.15,83h0a8.62,8.62,0,0,1,1.21-4.68,7.8,7.8,0,0,1,3.57-3,14,14,0,0,1,5.66-1,14.9,14.9,0,0,1,3.12.33,15.1,15.1,0,0,1,3,1,16.28,16.28,0,0,1,2.94,1.7l-2.34,3.3a13.73,13.73,0,0,0-3.37-1.92,9.38,9.38,0,0,0-3.36-.6,7.87,7.87,0,0,0-4.7,1.22,4,4,0,0,0-1.66,3.43h0a3.3,3.3,0,0,0,.87,2.39,5.4,5.4,0,0,0,2.16,1.28,36.51,36.51,0,0,0,3.58.85h.76a24,24,0,0,1,4.47,1.29,6.88,6.88,0,0,1,3,2.41,7.74,7.74,0,0,1,1.26,4.68h0a7.63,7.63,0,0,1-4.95,7.55,15.37,15.37,0,0,1-5.85,1A18.86,18.86,0,0,1,243.48,104Z"/><path d="M275.28,74.47h4.14l.11,29.5h-4.14Zm2,0,16.94-.07v3.94l-16.94.06Zm0,12.88L292,87.29v3.94H277.28Zm.05,12.68,16.94-.07v3.94l-16.94.06Z"/><path d="M320.33,87.92v5.15a12.67,12.67,0,0,1-1.25,5.8,9.2,9.2,0,0,1-3.61,3.88,10.61,10.61,0,0,1-5.42,1.39,11.25,11.25,0,0,1-5.49-1.26,9.12,9.12,0,0,1-3.68-3.63,11.15,11.15,0,0,1-1.32-5.45V85.09a12.56,12.56,0,0,1,1.25-5.78,9.26,9.26,0,0,1,3.61-3.88A10.61,10.61,0,0,1,309.84,74a10,10,0,0,1,4.68,1.07,9.77,9.77,0,0,1,3.6,3.06,11.38,11.38,0,0,1,2,4.59h-4.48a6.37,6.37,0,0,0-1.25-2.54,5.8,5.8,0,0,0-2.06-1.62,5.39,5.39,0,0,0-2.43-.54,5.67,5.67,0,0,0-5.33,3.33,8.57,8.57,0,0,0-.73,3.67v8.7a7,7,0,0,0,.78,3.33,5.57,5.57,0,0,0,2.19,2.22,6.71,6.71,0,0,0,3.26.78,6.31,6.31,0,0,0,3.21-.84,5.45,5.45,0,0,0,2.12-2.39,8.49,8.49,0,0,0,.73-3.71V91.89h-6v-4Z"/><path d="M330.59,102.72a9.28,9.28,0,0,1-3.65-3.8,12.06,12.06,0,0,1-1.31-5.71V84.85a12.13,12.13,0,0,1,1.26-5.71,9.12,9.12,0,0,1,3.63-3.83,11.64,11.64,0,0,1,10.88,0,9.16,9.16,0,0,1,3.65,3.8,12,12,0,0,1,1.31,5.7v8.36a12.2,12.2,0,0,1-1.26,5.72,9.43,9.43,0,0,1-3.63,3.83A11.64,11.64,0,0,1,330.59,102.72Zm8.64-3.59a5.58,5.58,0,0,0,2.15-2.34,7.68,7.68,0,0,0,.74-3.5V84.65a7.71,7.71,0,0,0-.77-3.5,5.5,5.5,0,0,0-2.16-2.32,6.68,6.68,0,0,0-6.43,0,5.46,5.46,0,0,0-2.15,2.34,7.63,7.63,0,0,0-.77,3.55v8.64a7.67,7.67,0,0,0,.77,3.49,5.58,5.58,0,0,0,2.16,2.33A6.35,6.35,0,0,0,336,100,6.15,6.15,0,0,0,339.23,99.13Z"/></g></g><path class="b746880c-160b-4391-9017-4487c8445b1b" d="M71.53,72.79q0-14.49,0-29c0-.8.3-.84.93-.84,5.22,0,10.43,0,15.64,0,1,0,1.11-.25.91-1.16a37.56,37.56,0,0,0-2.4-8.62A21.75,21.75,0,0,0,72.45,20.88a1.14,1.14,0,0,1-1-1.34q.06-8.4,0-16.8c0-1,.19-1.19,1.12-.76A98.57,98.57,0,0,1,93.73,15.09c15.6,12.7,25.31,29.12,30.55,48.37A110.72,110.72,0,0,1,127.88,90c0,1.72-.4,2.39-2,3.09a106.06,106.06,0,0,1-18.38,5.55,173.52,173.52,0,0,1-18.52,3.19c-5.34.62-10.68.94-16,1.17-1,0-1.38-.2-1.37-1.31,0-9.62,0-19.24,0-28.84Z"/><path class="b746880c-160b-4391-9017-4487c8445b1b" d="M40.2,61.49c.68,3.44,1.16,6.81,2.68,10a21.86,21.86,0,0,0,14,12.14c.66.19,1,.43,1,1.23,0,5.67,0,11.36,0,17,0,.88-.17,1.05-1,.67a98,98,0,0,1-22-13.83C19.8,76.18,10.38,60.12,5.22,41.41A110.61,110.61,0,0,1,1.51,14.94c-.07-2.3.32-2.83,2.49-3.72a119.42,119.42,0,0,1,20-5.8A168.88,168.88,0,0,1,44.51,2.27c4.07-.37,8.16-.48,12.24-.76.91-.06,1.07.25,1.07,1.09q0,29,0,58c0,.8-.28.85-.93.85-5.14,0-10.27,0-15.41,0Z"/><path class="b746880c-160b-4391-9017-4487c8445b1b" d="M79.74,73.47a20.78,20.78,0,0,1,9-4,22.69,22.69,0,0,1,14.73,1.72c1,.49,2.49,1,2.5,1.89,0,.72-1.6,1.2-2.58,1.62C95.78,78,88.22,78,80.78,74.08,80.45,73.91,80.13,73.7,79.74,73.47Z"/><path class="b746880c-160b-4391-9017-4487c8445b1b" d="M49.66,31A23.33,23.33,0,0,1,34.78,35.4a19.74,19.74,0,0,1-10.87-3.33c-.69-.48-.92-.76,0-1.29a25.32,25.32,0,0,1,15.9-3.18A22.5,22.5,0,0,1,49.66,31Z"/></g></g></svg>