<svg xmlns="http://www.w3.org/2000/svg" viewBox="0 0 347.56 105.97"><g id="ac5ca561-731f-4d4c-a50a-51f3d70f8aa0" data-name="Calque 2"><g id="baab0a2b-0176-4be1-ad52-9f4d362e1c63" data-name="Calque 1"><rect x="159.61" y="1.41" width="29.22" height="6.11"/><path d="M159.64,13.15l6.38,0,.17,45.44-6.38,0Zm3.09,0,26.1-.1,0,6.07-26.09.09ZM162.81,33l22.66-.09,0,6.06-22.66.09Zm.07,19.53,26.1-.1,0,6.06-26.09.1Z"/><path d="M229,33.86l0,7.94a19.46,19.46,0,0,1-1.93,8.93,14.38,14.38,0,0,1-5.56,6,16.28,16.28,0,0,1-8.35,2.14,17.33,17.33,0,0,1-8.46-2,13.89,13.89,0,0,1-5.66-5.58,17.12,17.12,0,0,1-2-8.4l0-13.41A19.22,19.22,0,0,1,199,20.6a14.22,14.22,0,0,1,5.56-6,16.28,16.28,0,0,1,8.35-2.14,15.69,15.69,0,0,1,7.21,1.65,15.27,15.27,0,0,1,5.53,4.71,17.63,17.63,0,0,1,3,7.08l-6.91,0A9.86,9.86,0,0,0,219.8,22a9.1,9.1,0,0,0-3.17-2.48,8.7,8.7,0,0,0-3.75-.85A9.07,9.07,0,0,0,208,20.06a9,9,0,0,0-3.27,3.78,13,13,0,0,0-1.13,5.65l0,13.4A10.69,10.69,0,0,0,204.8,48a8.47,8.47,0,0,0,3.38,3.41,10,10,0,0,0,5,1.2,9.48,9.48,0,0,0,4.93-1.29,8.34,8.34,0,0,0,3.27-3.68A13.12,13.12,0,0,0,222.53,42V40l-9.21,0,0-6.09Z"/><path d="M249.77,12.81l5.43,0,16.92,45.37-6.87,0L252.52,21.58,240.06,58.29l-6.87,0Zm-8.92,29.44,23.9-.09,0,6.06-23.9.09Z"/><path d="M283.2,56.61a13.11,13.11,0,0,1-5.48-5.76,20.57,20.57,0,0,1-1.91-9.14l-.11-29,6.38,0,.11,29.22q0,5,2.53,7.68a10.59,10.59,0,0,0,14.17-.06c1.67-1.82,2.5-4.38,2.49-7.7l-.12-29.21,6.38,0,.11,29a20.55,20.55,0,0,1-1.84,9.15,13,13,0,0,1-5.45,5.8,19.75,19.75,0,0,1-17.26.07Z"/><path d="M328.21,32l11.34-19.51,7.15,0L331.76,37.09,319.65,58l-7.15,0Zm.31,6-1-1.56L312.7,12.57l7.16,0L330.9,31l1,1.69,15.63,25.19-7.16,0Z"/><path d="M164.18,105.58a15.32,15.32,0,0,1-3.57-1.21,15.09,15.09,0,0,1-3.1-2l2.57-3.18a11.49,11.49,0,0,0,3.72,2.18,12.81,12.81,0,0,0,4.4.71,8.94,8.94,0,0,0,5-1.2,3.82,3.82,0,0,0,1.75-3.37v0a3.51,3.51,0,0,0-.81-2.44A4.82,4.82,0,0,0,172,93.71a22.83,22.83,0,0,0-3.27-.79l-.14,0-.13,0-.3-.06a31.7,31.7,0,0,1-4.83-1.13,6.72,6.72,0,0,1-3.18-2.32,7.71,7.71,0,0,1-1.34-4.81v0a8.62,8.62,0,0,1,1.21-4.68,7.74,7.74,0,0,1,3.57-3,14.17,14.17,0,0,1,5.66-1,13.53,13.53,0,0,1,3.11.33,14.77,14.77,0,0,1,3,1,17.58,17.58,0,0,1,2.94,1.7L176,82.2a13.88,13.88,0,0,0-3.37-1.84,9.63,9.63,0,0,0-3.36-.61A7.93,7.93,0,0,0,164.6,81a4,4,0,0,0-1.66,3.42v0a3.22,3.22,0,0,0,.87,2.39A5.21,5.21,0,0,0,166,88.09a30.59,30.59,0,0,0,3.58.85l.15,0,.16,0,.22,0,.22,0a25.08,25.08,0,0,1,4.48,1.28,7,7,0,0,1,3,2.41A7.72,7.72,0,0,1,179,97.34v0a8.21,8.21,0,0,1-1.26,4.63,8,8,0,0,1-3.69,2.93,15.27,15.27,0,0,1-5.85,1A20.14,20.14,0,0,1,164.18,105.58Z"/><path d="M191.64,76.07h3.53l11,29.46-4.46,0-8.27-23.77-8.08,23.83h-4.47Zm-5.79,19.12,15.52-.06v3.93l-15.52.06Z"/><path d="M210.51,76h3.75l14.51,22.75-.48.53-.09-23.33,4.1,0,.11,29.48h-3.8L214.14,83l.49-.53.09,23h-4.1Z"/><path d="M244.54,105.27a15,15,0,0,1-3.57-1.2,15.41,15.41,0,0,1-3.1-2l2.57-3.17a11.46,11.46,0,0,0,3.72,2.17,13.06,13.06,0,0,0,4.4.72,8.83,8.83,0,0,0,5-1.21,3.8,3.8,0,0,0,1.75-3.36v0a3.53,3.53,0,0,0-.81-2.45,4.94,4.94,0,0,0-2.07-1.33,24.46,24.46,0,0,0-3.28-.79H249l-.14,0-.3-.06a31.54,31.54,0,0,1-4.82-1.13,6.86,6.86,0,0,1-3.19-2.32,7.74,7.74,0,0,1-1.34-4.82v0a8.67,8.67,0,0,1,1.21-4.68,7.78,7.78,0,0,1,3.57-3,14.19,14.19,0,0,1,5.66-1,14.83,14.83,0,0,1,3.12.33,15.57,15.57,0,0,1,3,1,16.91,16.91,0,0,1,2.94,1.7l-2.34,3.3A13.73,13.73,0,0,0,253,80.05a9.47,9.47,0,0,0-3.36-.6,7.89,7.89,0,0,0-4.7,1.22,4,4,0,0,0-1.66,3.43v0a3.32,3.32,0,0,0,.87,2.39,5.31,5.31,0,0,0,2.16,1.28,35.31,35.31,0,0,0,3.58.85l.16,0,.15,0,.22,0,.23,0a24.32,24.32,0,0,1,4.47,1.29,6.89,6.89,0,0,1,3,2.41A7.7,7.7,0,0,1,259.38,97v0a8.08,8.08,0,0,1-1.26,4.62,8,8,0,0,1-3.69,2.93,15.27,15.27,0,0,1-5.85,1A18.78,18.78,0,0,1,244.54,105.27Z"/><path d="M276.34,75.75h4.14l.11,29.5h-4.14Zm2,0,16.94-.07,0,3.94-16.94.06Zm0,12.88,14.71-.06v3.94l-14.71,0Zm.05,12.68,16.94-.07v3.94l-16.94.06Z"/><path d="M321.39,89.2l0,5.15a12.66,12.66,0,0,1-1.25,5.8,9.22,9.22,0,0,1-3.61,3.88,10.48,10.48,0,0,1-5.42,1.39,11.27,11.27,0,0,1-5.49-1.26,9.12,9.12,0,0,1-3.68-3.63,11.16,11.16,0,0,1-1.32-5.45l0-8.71a12.52,12.52,0,0,1,1.25-5.78,9.28,9.28,0,0,1,3.61-3.88,10.58,10.58,0,0,1,5.42-1.39,10.12,10.12,0,0,1,4.68,1.07,9.8,9.8,0,0,1,3.6,3.06,11.43,11.43,0,0,1,2,4.59l-4.48,0a6.44,6.44,0,0,0-1.25-2.54,5.84,5.84,0,0,0-2.06-1.62,5.45,5.45,0,0,0-2.43-.54,5.68,5.68,0,0,0-5.33,3.33,8.44,8.44,0,0,0-.73,3.67l0,8.7a7.06,7.06,0,0,0,.78,3.33,5.51,5.51,0,0,0,2.19,2.22,6.66,6.66,0,0,0,3.26.78,6.24,6.24,0,0,0,3.21-.84,5.5,5.5,0,0,0,2.12-2.39,8.5,8.5,0,0,0,.73-3.71V93.17l-6,0v-4Z"/><path d="M331.65,104a9.22,9.22,0,0,1-3.65-3.8,12.15,12.15,0,0,1-1.31-5.71l0-8.36a12.13,12.13,0,0,1,1.26-5.71,9.19,9.19,0,0,1,3.63-3.83,11.64,11.64,0,0,1,10.88,0,9.16,9.16,0,0,1,3.65,3.8,12.1,12.1,0,0,1,1.31,5.7l0,8.36a12.17,12.17,0,0,1-1.26,5.72,9.38,9.38,0,0,1-3.63,3.83,11.64,11.64,0,0,1-10.88,0Zm8.64-3.59a5.54,5.54,0,0,0,2.15-2.34,7.64,7.64,0,0,0,.74-3.5l0-8.64a7.65,7.65,0,0,0-.77-3.5,5.51,5.51,0,0,0-2.16-2.32,6.71,6.71,0,0,0-6.43,0,5.54,5.54,0,0,0-2.15,2.34A7.68,7.68,0,0,0,330.9,86l0,8.64a7.6,7.6,0,0,0,.77,3.49,5.54,5.54,0,0,0,2.16,2.33,6.29,6.29,0,0,0,3.22.81A6.14,6.14,0,0,0,340.29,100.41Z"/><path d="M58.3,85.21v19.66c-.95-.4-1.72-.69-2.47-1.05C28.56,90.58,11.17,69.2,3.49,39.89A116,116,0,0,1,0,13.27a2.74,2.74,0,0,1,2-3c7.55-3.19,15.48-5,23.47-6.7A185,185,0,0,1,55.94,0c.67,0,1.35,0,2.3,0V60.33c0,.56,0,1.11,0,1.66l.06,0H40c.66,3,.91,5.63,1.8,8,2.94,7.84,8.29,13.19,16.56,15.31ZM49.91,30.45c-8.2-5.4-20.35-4.78-27.71.38C29,36.65,42.11,36.5,49.91,30.45Z"/><path d="M72.52,19.66V0c1,.4,1.73.69,2.47,1.05C102.27,14.29,119.66,35.67,127.33,65a115.42,115.42,0,0,1,3.49,26.62,2.73,2.73,0,0,1-2,3c-7.56,3.19-15.49,5-23.48,6.7a184.86,184.86,0,0,1-30.49,3.54c-.67,0-1.34,0-2.3,0V44.54c0-.56,0-1.11,0-1.66l-.06,0H90.84c-.66-3-.91-5.63-1.8-8-2.93-7.83-8.29-13.18-16.56-15.3Zm8.39,54.76c8.2,5.4,20.36,4.78,27.71-.38C101.81,68.22,88.71,68.37,80.91,74.42Z"/></g></g></svg>