<svg id="bd866483-0b1d-40de-ae16-78167d8eb817" data-name="Calque 1" xmlns="http://www.w3.org/2000/svg" viewBox="0 0 189.96 224.8"><defs><style>.bd11a7f1-9042-44ec-812d-1689920f2d5b{fill:none;stroke:#000;stroke-miterlimit:10;stroke-width:2px;}</style></defs><g id="ba05fc2e-7588-4da1-839a-4e787ba58599" data-name="ea3a07f1-217e-4b8a-a240-e21674cecf6e"><g id="e1ed2f2b-d8b7-4628-adf9-20720fa0c7d3" data-name="be6ca734-f421-40e9-88f4-00a416fd4529"><rect x="2.1" y="120.45" width="29.22" height="6.11"/><path d="M2.13,133.5H8.5l.18,45.44H2.3Zm3.09,0,26.1-.1v6.07l-26.09.09Zm.08,19.85,22.7-.1v6.06l-22.66.09Zm.07,19.53,26.1-.1v6.06l-26.09.1Z" transform="translate(0 -1.31)"/><path d="M71.52,154.21v7.94a19.54,19.54,0,0,1-1.93,8.93,14.31,14.31,0,0,1-5.56,6,16.4,16.4,0,0,1-8.35,2.14,17.41,17.41,0,0,1-8.46-2,13.89,13.89,0,0,1-5.66-5.58,16.94,16.94,0,0,1-2-8.4l-.06-13.41A19.27,19.27,0,0,1,41.44,141,14.25,14.25,0,0,1,47,135a16.31,16.31,0,0,1,8.36-2.14,15.69,15.69,0,0,1,7.21,1.65,15.17,15.17,0,0,1,5.53,4.71,17.81,17.81,0,0,1,3,7.08H64.19a9.85,9.85,0,0,0-1.92-3.92,9.14,9.14,0,0,0-3.17-2.48,8.68,8.68,0,0,0-3.75-.85,9,9,0,0,0-4.93,1.36,8.88,8.88,0,0,0-3.27,3.78A13.06,13.06,0,0,0,46,149.84l0,13.4a10.68,10.68,0,0,0,1.2,5.14,8.41,8.41,0,0,0,3.38,3.41,10,10,0,0,0,5,1.2,9.49,9.49,0,0,0,4.93-1.29,8.4,8.4,0,0,0,3.33-3.7A13.13,13.13,0,0,0,65,162.3v-2H55.78v-6.09Z" transform="translate(0 -1.31)"/><path d="M92.25,133.16h5.44l16.92,45.37h-6.87L95,141.93,82.55,178.64H75.68ZM83.33,162.6l23.91-.09v6.06l-23.9.09Z" transform="translate(0 -1.31)"/><path d="M125.69,177a13.15,13.15,0,0,1-5.48-5.76,20.46,20.46,0,0,1-1.91-9.14l-.11-29h6.38l.11,29.22q0,5,2.53,7.67a9.1,9.1,0,0,0,7.07,2.7,9.21,9.21,0,0,0,7.1-2.75c1.67-1.82,2.5-4.38,2.48-7.7L143.75,133h6.38l.11,29a20.47,20.47,0,0,1-1.84,9.15A13,13,0,0,1,143,177a19.76,19.76,0,0,1-17.26.07Z" transform="translate(0 -1.31)"/><path d="M170.7,152.33,182,132.82h7.16l-14.94,24.65-12.11,20.89H155Zm.31,6-1-1.56-14.84-23.85h7.16l11,18.46,1,1.69L190,178.26H182.8Z" transform="translate(0 -1.31)"/><path d="M6.67,225.93a15,15,0,0,1-3.57-1.21,15.34,15.34,0,0,1-3.1-2l2.56-3.18a11.76,11.76,0,0,0,3.73,2.18,12.88,12.88,0,0,0,4.4.71,8.85,8.85,0,0,0,5-1.21,3.8,3.8,0,0,0,1.75-3.36h0a3.49,3.49,0,0,0-.81-2.44,4.84,4.84,0,0,0-2.08-1.33,23,23,0,0,0-3.28-.79H11l-.3-.06A31.2,31.2,0,0,1,5.85,212a6.72,6.72,0,0,1-3.18-2.32,7.69,7.69,0,0,1-1.34-4.81h0a8.65,8.65,0,0,1,1.21-4.68,7.63,7.63,0,0,1,3.57-3,14.43,14.43,0,0,1,5.66-1,14.11,14.11,0,0,1,3.11.34,15.1,15.1,0,0,1,3,1,17.55,17.55,0,0,1,2.94,1.7l-2.34,3.3a13.63,13.63,0,0,0-3.37-1.84,9.61,9.61,0,0,0-3.36-.61,7.94,7.94,0,0,0-4.69,1.23,4,4,0,0,0-1.66,3.42h0a3.2,3.2,0,0,0,.87,2.39,5.12,5.12,0,0,0,2.16,1.28,31.55,31.55,0,0,0,3.58.85h.75a25.75,25.75,0,0,1,4.48,1.28,7,7,0,0,1,3,2.41,7.71,7.71,0,0,1,1.23,4.57h0a8.2,8.2,0,0,1-1.26,4.62,8,8,0,0,1-3.7,2.94,15.32,15.32,0,0,1-5.84,1A19.84,19.84,0,0,1,6.67,225.93Z" transform="translate(0 -1.31)"/><path d="M34.13,196.42h3.53l11,29.46H44.18l-8.27-23.76L27.83,226H23.36Zm-5.79,19.12,15.52-.06v3.93l-15.52.06Z" transform="translate(0 -1.31)"/><path d="M53,196.35h3.75L71.26,219.1l-.48.53-.09-23.33h4.1l.11,29.48H71.1l-14.47-22.4.49-.53.09,23h-4.1Z" transform="translate(0 -1.31)"/><path d="M87,225.62a14.79,14.79,0,0,1-6.67-3.22l2.57-3.17a11.69,11.69,0,0,0,3.72,2.17,13.14,13.14,0,0,0,4.4.72,8.85,8.85,0,0,0,5-1.21,3.82,3.82,0,0,0,1.75-3.36h0a3.49,3.49,0,0,0-.81-2.44,4.9,4.9,0,0,0-2.07-1.33,24.48,24.48,0,0,0-3.28-.79h-.27l-.3-.06a31.8,31.8,0,0,1-4.82-1.12A6.85,6.85,0,0,1,83,209.42a7.72,7.72,0,0,1-1.34-4.82h0a8.65,8.65,0,0,1,1.21-4.68,7.8,7.8,0,0,1,3.57-3,14,14,0,0,1,5.66-1,14.9,14.9,0,0,1,3.12.33,15.77,15.77,0,0,1,3,1,15.94,15.94,0,0,1,2.94,1.7l-2.34,3.29a13.63,13.63,0,0,0-3.37-1.84,9.36,9.36,0,0,0-3.35-.6A7.87,7.87,0,0,0,87.4,201a4,4,0,0,0-1.66,3.43h0a3.3,3.3,0,0,0,.87,2.39,5.4,5.4,0,0,0,2.16,1.28,31.51,31.51,0,0,0,3.58.84h.75a24.14,24.14,0,0,1,4.48,1.29,6.88,6.88,0,0,1,3,2.41,7.71,7.71,0,0,1,1.23,4.57h0A8.25,8.25,0,0,1,96.92,225a15.37,15.37,0,0,1-5.85,1A19.16,19.16,0,0,1,87,225.62Z" transform="translate(0 -1.31)"/><path d="M118.83,196.1H123l.11,29.5H119Zm2,0,16.94-.06V200l-17,.06Zm0,12.89,14.71-.06v3.94H120.83Zm0,12.68,16.94-.07v3.94l-16.94.06Z" transform="translate(0 -1.31)"/><path d="M163.88,209.55v5.15a12.6,12.6,0,0,1-1.25,5.79,9.28,9.28,0,0,1-3.61,3.89,10.41,10.41,0,0,1-5.42,1.39,11.31,11.31,0,0,1-5.5-1.26,9.1,9.1,0,0,1-3.67-3.63,11.12,11.12,0,0,1-1.32-5.45v-8.71a12.56,12.56,0,0,1,1.25-5.78,9.26,9.26,0,0,1,3.61-3.88,10.61,10.61,0,0,1,5.42-1.39,10.25,10.25,0,0,1,4.68,1.06,9.86,9.86,0,0,1,3.59,3.07,11.38,11.38,0,0,1,2,4.59h-4.48a6.37,6.37,0,0,0-1.25-2.54,5.91,5.91,0,0,0-2.06-1.62,5.68,5.68,0,0,0-2.43-.55,5.87,5.87,0,0,0-3.21.89,5.79,5.79,0,0,0-2.12,2.45,8.57,8.57,0,0,0-.73,3.67v8.7a7,7,0,0,0,.78,3.33,5.44,5.44,0,0,0,2.19,2.22,6.71,6.71,0,0,0,3.26.78,6.11,6.11,0,0,0,3.2-.84,5.54,5.54,0,0,0,2.13-2.39,8.46,8.46,0,0,0,.73-3.71V213.5h-6v-4Z" transform="translate(0 -1.31)"/><path d="M174.14,224.35a9.22,9.22,0,0,1-3.65-3.8,12.06,12.06,0,0,1-1.31-5.71v-8.36a12.13,12.13,0,0,1,1.26-5.71,9.12,9.12,0,0,1,3.63-3.83,11.62,11.62,0,0,1,10.87,0,9.12,9.12,0,0,1,3.66,3.8,12,12,0,0,1,1.31,5.7v8.36a12.2,12.2,0,0,1-1.26,5.72,9.37,9.37,0,0,1-3.63,3.83,11.69,11.69,0,0,1-10.88,0Zm8.64-3.59a5.52,5.52,0,0,0,2.15-2.34,7.68,7.68,0,0,0,.74-3.5v-8.64a7.71,7.71,0,0,0-.77-3.5,5.58,5.58,0,0,0-2.16-2.33,6.24,6.24,0,0,0-3.22-.8,6.11,6.11,0,0,0-3.21.83,5.52,5.52,0,0,0-2.15,2.34,7.68,7.68,0,0,0-.74,3.5V215a7.67,7.67,0,0,0,.77,3.49,5.58,5.58,0,0,0,2.16,2.33,6.68,6.68,0,0,0,6.43,0Z" transform="translate(0 -1.31)"/><path class="bd11a7f1-9042-44ec-812d-1689920f2d5b" d="M102.63,78.92q0-15.56,0-31.12c0-.87.33-.91,1-.91,5.6,0,11.21,0,16.8,0,1.08,0,1.19-.28,1-1.25a41.06,41.06,0,0,0-2.58-9.27c-3.13-6.67-8.08-11.21-15.19-13.27a1.23,1.23,0,0,1-1.06-1.44q.06-9,0-18c0-1.07.2-1.29,1.2-.82a105.26,105.26,0,0,1,22.72,14.09c16.77,13.64,27.21,31.3,32.84,52a119.5,119.5,0,0,1,3.86,28.47c.05,1.85-.42,2.57-2.19,3.32a114.37,114.37,0,0,1-19.75,6,189.05,189.05,0,0,1-19.91,3.42c-5.73.67-11.48,1-17.24,1.26-1.1,0-1.47-.21-1.47-1.41.06-10.33,0-20.67,0-31Z" transform="translate(0 -1.31)"/><path class="bd11a7f1-9042-44ec-812d-1689920f2d5b" d="M69,66.78c.73,3.7,1.24,7.32,2.88,10.71a23.46,23.46,0,0,0,15.08,13c.71.21,1,.47,1,1.33q-.08,9.14,0,18.3c0,.94-.18,1.13-1.07.72A105.56,105.56,0,0,1,63.19,96C47,82.57,36.92,65.31,31.37,45.2a119.84,119.84,0,0,1-4-28.44c-.07-2.48.35-3,2.68-4A128.15,128.15,0,0,1,51.54,6.53,182.17,182.17,0,0,1,73.6,3.14c4.37-.39,8.77-.52,13.15-.82,1-.07,1.15.28,1.15,1.18q0,31.19,0,62.37c0,.86-.3.92-1,.91-5.52,0-11,0-16.56,0Z" transform="translate(0 -1.31)"/><path class="bd11a7f1-9042-44ec-812d-1689920f2d5b" d="M111.46,79.65a22.44,22.44,0,0,1,9.71-4.25A24.36,24.36,0,0,1,137,77.25c1.05.53,2.67,1,2.69,2,0,.78-1.72,1.29-2.77,1.74-8.22,3.52-16.35,3.49-24.34-.7C112.22,80.13,111.88,79.9,111.46,79.65Z" transform="translate(0 -1.31)"/><path class="bd11a7f1-9042-44ec-812d-1689920f2d5b" d="M79.13,34a25.12,25.12,0,0,1-16,4.72,21.3,21.3,0,0,1-11.68-3.58c-.74-.52-1-.82,0-1.39a27.21,27.21,0,0,1,17.09-3.42A24.15,24.15,0,0,1,79.13,34Z" transform="translate(0 -1.31)"/></g></g></svg>