<?xml version="1.0" encoding="utf-8"?>
<!-- Generator: Adobe Illustrator 25.2.2, SVG Export Plug-In . SVG Version: 6.00 Build 0)  -->
<svg version="1.1" id="a75983d8-2dd7-4986-ad6e-9c89ba8577dd"
	 xmlns="http://www.w3.org/2000/svg" xmlns:xlink="http://www.w3.org/1999/xlink" x="0px" y="0px" viewBox="0 0 549.2 441.7"
	 style="enable-background:new 0 0 549.2 441.7;" xml:space="preserve">
<style type="text/css">
	.st0{fill:none;stroke:#000000;stroke-width:10;stroke-miterlimit:10;}
</style>
<path class="st0" d="M304.1,309.5c0-41.7,0-83.3-0.1-125c0-3.5,1.3-3.6,4-3.6c22.5,0.1,45-0.1,67.5,0.1c4.3,0,4.8-1.1,3.9-5
	c-2.7-12.6-4.8-25.3-10.4-37.2c-12.6-26.8-32.5-45-61-53.3c-3.4-1-4.3-2.4-4.2-5.8c0.2-24.2,0.2-48.3,0-72.5c0-4.3,0.8-5.1,4.8-3.3
	C341.4,19,372,38,399.9,60.6c67.3,54.8,109.2,125.6,131.8,208.7c10.2,37.4,14.6,75.6,15.5,114.3c0.2,7.4-1.7,10.3-8.8,13.3
	c-25.6,10.9-52.3,17.8-79.3,24c-26.4,6-53.1,10.6-79.9,13.8c-23,2.7-46.1,4.1-69.2,5.1c-4.4,0.2-5.9-0.9-5.9-5.7
	c0.2-41.5,0.1-83,0.1-124.4L304.1,309.5z"/>
<path class="st0" d="M169,260.8c2.9,14.9,5,29.4,11.6,43c12.7,26.2,32.3,44.1,60.5,52.3c2.9,0.8,4.2,1.9,4.1,5.3
	c-0.2,24.5-0.2,49,0,73.5c0,3.8-0.8,4.6-4.3,2.9c-34.2-15.6-66.2-35.6-95.1-59.7C81,324.2,40.3,254.9,18,174.2
	C7.7,136.8,3.2,98.6,2,60c-0.3-9.9,1.4-12.2,10.7-16c27.8-11.4,56.9-18.6,86.2-25c29.2-6.4,58.8-10.9,88.6-13.6
	c17.6-1.6,35.2-2.1,52.8-3.3c3.9-0.3,4.6,1.1,4.6,4.7c-0.1,83.5-0.1,166.9,0,250.4c0,3.4-1.2,3.7-4,3.7c-22.2-0.1-44.3,0-66.5,0
	L169,260.8z"/>
<path class="st0" d="M339.5,312.5c11.5-8.7,24.8-14.6,39-17.1c21.9-4.1,43.3-2.7,63.5,7.4c4.2,2.1,10.8,4.1,10.8,8.1
	c0,3.1-6.9,5.2-11.2,7c-33,14.1-65.6,14-97.7-2.8C342.6,314.4,341.2,313.5,339.5,312.5z"/>
<path class="st0" d="M209.8,129.3c-19.5,14.1-40.9,19.6-64.2,18.9c-17-0.5-32.8-4.7-46.9-14.4c-3-2.1-4-3.3,0-5.6
	c21.3-12.4,44.3-16.4,68.6-13.7C182.4,116.1,197,121.2,209.8,129.3z"/>
</svg>
