<?xml version="1.0" encoding="utf-8"?>
<!-- Generator: Adobe Illustrator 25.2.2, SVG Export Plug-In . SVG Version: 6.00 Build 0)  -->
<svg version="1.1" id="a5f3fe76-9a96-4fa4-9db5-deb6f6c8ae17"
	 xmlns="http://www.w3.org/2000/svg" xmlns:xlink="http://www.w3.org/1999/xlink" x="0px" y="0px" viewBox="0 0 1000 1000"
	 style="enable-background:new 0 0 1000 1000;" xml:space="preserve">
<style type="text/css">
	.st0{fill:#010101;}
</style>
<path class="st0" d="M979.3,786.2c-1.7-68-9.4-135.2-27.3-201C912.3,439.1,838.6,314.4,720.1,218c-49.1-39.8-103-73.2-160.4-99.5
	c-7.1-3.3-8.5-1.7-8.5,5.8c0.3,42.5,0.3,85,0,127.5c0,6,1.5,8.4,7.5,10.2c50.2,14.6,85.2,46.6,107.3,93.7
	c9.8,20.9,13.5,43.3,18.2,65.5c1.5,6.8,0.7,8.8-6.9,8.8c-39.5-0.4-79.1-0.1-118.7-0.2c-4.8,0-7.1,0.3-7.1,6.4
	c0.2,73.3,0.2,146.5,0.2,219.8l0.2,0.1c0,72.9,0.2,145.9-0.2,218.9c0,8.5,2.6,10.3,10.4,10c40.7-1.8,81.3-4.2,121.7-8.9
	c47.3-5.5,94.2-13.6,140.6-24.2c47.5-10.8,94.5-22.9,139.5-42.1C976.3,804.4,979.7,799.3,979.3,786.2z M793.8,670.8
	c-58.1,24.9-115.4,24.6-171.9-5c-2.5-1.4-4.9-2.9-7.9-4.7c20.1-15.3,43.7-25.6,68.6-30c38.5-7.2,76.1-4.8,111.8,13.1
	c7.4,3.7,18.9,7.3,19,14.3C813.4,664,801.2,667.6,793.8,670.8z"/>
<path class="st0" d="M448,747.3c0.1-6.1-2.3-7.9-7.3-9.4c-49.6-14.4-84.2-45.9-106.5-92.1c-11.6-23.9-15.2-49.5-20.4-75.6l9.7,0
	c39,0,77.9-0.2,116.9,0c4.9,0,7-0.4,7-6.5c-0.2-146.8-0.2-293.6,0-440.5c0-6.4-1.2-8.8-8.1-8.3c-31,2.1-62,3-92.9,5.8
	c-52.4,4.7-104.4,12.7-155.8,23.9c-51.6,11.3-102.7,23.9-151.7,44c-16.4,6.8-19.4,10.7-18.9,28.2c2,68,10,135.2,28.1,200.9
	c39.2,142,110.7,263.9,224.7,358.9c50.8,42.3,107.1,77.6,167.3,105c6.3,2.9,7.6,1.6,7.6-5.1C447.7,833.5,447.6,790.3,448,747.3z
	 M272.8,372.2c-29.9-0.9-57.6-8.2-82.5-25.3c-5.3-3.7-7-5.8,0-9.8c37.5-21.8,77.9-28.8,120.6-24.1c26.6,2.7,52.2,11.6,74.8,25.9
	C351.4,363.7,313.7,373.4,272.8,372.2z"/>
</svg>
