<svg xmlns="http://www.w3.org/2000/svg" viewBox="0 0 259.89 133.09"><defs><style>.f4e51806-32fc-4acd-b9a3-53e07dd6614c{fill:#939598;}.ad6a752a-922b-456f-8751-9fedbd2dcc4e{fill:none;stroke:#000;stroke-miterlimit:10;stroke-width:3px;}</style></defs><g id="ea4c10d6-b83c-41e3-98d0-6c9d7c9daa71" data-name="Calque 2"><g id="a83edf50-4741-4498-873b-18a9f5c68f00" data-name="Calque 1"><g id="b61ea447-d2fe-4451-99fe-c41923515ca7" data-name="b1d7659d-e7d7-4719-bfde-4fde77338b7c"><g id="a0e57db4-16cc-4499-aa3d-3c3c85ee1404" data-name="f325c209-c65b-441d-86f8-7f504d007470"><rect x="2.1" y="28.73" width="29.22" height="6.11"/><path d="M2.13,40.46H8.5L8.68,85.9H2.3Zm3.09,0,26.1-.1v6.07l-26.09.1ZM5.3,60.3,28,60.21v6.06l-22.66.09Zm.07,19.53,26.1-.1v6.06l-26.09.1Z"/><path d="M71.52,61.17v7.94A19.38,19.38,0,0,1,69.62,78a14.31,14.31,0,0,1-5.56,6,16.27,16.27,0,0,1-8.35,2.14,17.44,17.44,0,0,1-8.46-2,14,14,0,0,1-5.66-5.59,16.94,16.94,0,0,1-2-8.4L39.5,56.82a19.34,19.34,0,0,1,1.94-8.91,14.22,14.22,0,0,1,5.55-6,16.33,16.33,0,0,1,8.36-2.14,15.69,15.69,0,0,1,7.21,1.65,15.43,15.43,0,0,1,5.53,4.71,17.81,17.81,0,0,1,3,7.08H64.18a9.74,9.74,0,0,0-1.92-3.91,9.05,9.05,0,0,0-3.17-2.49A8.69,8.69,0,0,0,55.37,46a8.72,8.72,0,0,0-8.2,5.14A13,13,0,0,0,46,56.8l0,13.4a10.68,10.68,0,0,0,1.2,5.14,8.41,8.41,0,0,0,3.38,3.41,10,10,0,0,0,5,1.2,9.49,9.49,0,0,0,4.93-1.29A8.36,8.36,0,0,0,63.89,75,13,13,0,0,0,65,69.26v-2H55.78V61.17Z"/><path d="M92.25,40.12h5.44L114.61,85.5h-6.87L95,48.89,82.55,85.6H75.68ZM83.33,69.56l23.91-.09v6.06l-23.9.1Z"/><path d="M125.69,83.92a13.15,13.15,0,0,1-5.48-5.76A20.38,20.38,0,0,1,118.3,69l-.11-29h6.38l.11,29.22q0,5,2.53,7.68a10.59,10.59,0,0,0,14.17-.06c1.67-1.82,2.5-4.38,2.48-7.7l-.11-29.21h6.38l.11,29a20.47,20.47,0,0,1-1.84,9.15,13,13,0,0,1-5.45,5.8,19.76,19.76,0,0,1-17.26.07Z"/><path d="M170.7,59.29,182,39.78h7.16L174.25,64.4,162.14,85.3H155Zm.31,6-1-1.56L155.19,39.88h7.16l11,18.45,1,1.69L190,85.21h-7.16Z"/><path d="M6.67,132.89a15,15,0,0,1-3.57-1.21,15.34,15.34,0,0,1-3.1-2l2.56-3.18a11.76,11.76,0,0,0,3.73,2.18,12.88,12.88,0,0,0,4.4.71,8.92,8.92,0,0,0,5-1.2,3.81,3.81,0,0,0,1.75-3.37h0a3.49,3.49,0,0,0-.81-2.44A4.8,4.8,0,0,0,14.52,121a23,23,0,0,0-3.28-.79H11l-.3-.06A32,32,0,0,1,5.85,119a6.72,6.72,0,0,1-3.18-2.32,7.69,7.69,0,0,1-1.34-4.81h0a8.65,8.65,0,0,1,1.21-4.68,7.63,7.63,0,0,1,3.57-3,14,14,0,0,1,5.66-1,13.53,13.53,0,0,1,3.11.33,15.1,15.1,0,0,1,3,1,16.94,16.94,0,0,1,2.94,1.71l-2.34,3.29a13.63,13.63,0,0,0-3.37-1.84,9.61,9.61,0,0,0-3.36-.61,7.94,7.94,0,0,0-4.69,1.23,4,4,0,0,0-1.66,3.42h0a3.2,3.2,0,0,0,.87,2.39,5.12,5.12,0,0,0,2.16,1.28,31.55,31.55,0,0,0,3.58.85h.75a25.75,25.75,0,0,1,4.48,1.28,7,7,0,0,1,3,2.41,7.71,7.71,0,0,1,1.23,4.57h0a8.28,8.28,0,0,1-1.26,4.62,8,8,0,0,1-3.7,2.93,15.32,15.32,0,0,1-5.84,1A19.79,19.79,0,0,1,6.67,132.89Z"/><path d="M34.13,103.39h3.53l11,29.46H44.2l-8.27-23.77-8.08,23.83H23.38ZM28.34,122.5l15.52-.06v3.94l-15.52.05Z"/><path d="M53,103.31h3.75l14.51,22.75-.48.53-.09-23.33h4.1l.11,29.48H71.1l-14.47-22.4.49-.53.09,23h-4.1Z"/><path d="M87,132.58a14.86,14.86,0,0,1-3.57-1.2,15.34,15.34,0,0,1-3.1-2l2.57-3.17a11.4,11.4,0,0,0,3.72,2.17,13.14,13.14,0,0,0,4.4.72,8.85,8.85,0,0,0,5-1.21,3.8,3.8,0,0,0,1.75-3.36h0A3.56,3.56,0,0,0,97,122a5,5,0,0,0-2.07-1.33,24.48,24.48,0,0,0-3.28-.79h-.27l-.3-.06a31.83,31.83,0,0,1-4.82-1.13A6.83,6.83,0,0,1,83,116.38a7.72,7.72,0,0,1-1.34-4.82h0a8.65,8.65,0,0,1,1.21-4.68,7.8,7.8,0,0,1,3.57-3,14,14,0,0,1,5.66-1,14.9,14.9,0,0,1,3.12.33,15.77,15.77,0,0,1,3,1,17.55,17.55,0,0,1,2.94,1.7l-2.34,3.3a13.49,13.49,0,0,0-3.37-1.85,9.36,9.36,0,0,0-3.35-.6A7.87,7.87,0,0,0,87.4,108a4,4,0,0,0-1.66,3.43h0a3.3,3.3,0,0,0,.87,2.39,5.4,5.4,0,0,0,2.16,1.28,33.85,33.85,0,0,0,3.58.85h.75a24.14,24.14,0,0,1,4.48,1.29,6.88,6.88,0,0,1,3,2.41,7.71,7.71,0,0,1,1.23,4.57h0a7.65,7.65,0,0,1-5,7.56,15.37,15.37,0,0,1-5.85,1A18.75,18.75,0,0,1,87,132.58Z"/><path d="M118.83,103.06H123l.11,29.5H119Zm2,0,16.94-.07v3.94l-17,.06Zm0,12.88,14.71-.06v3.94l-14.71.05Zm0,12.68,16.94-.07v3.94l-16.94.06Z"/><path d="M163.88,116.51v5.15a12.64,12.64,0,0,1-1.25,5.8,9.2,9.2,0,0,1-3.61,3.88,10.41,10.41,0,0,1-5.42,1.39,11.31,11.31,0,0,1-5.5-1.26,9.1,9.1,0,0,1-3.67-3.63,11.12,11.12,0,0,1-1.32-5.45v-8.71a12.56,12.56,0,0,1,1.25-5.78A9.32,9.32,0,0,1,148,104a10.61,10.61,0,0,1,5.42-1.39,10.13,10.13,0,0,1,4.68,1.07,9.74,9.74,0,0,1,3.59,3.06,11.38,11.38,0,0,1,2,4.59h-4.48a6.37,6.37,0,0,0-1.25-2.54,5.91,5.91,0,0,0-2.06-1.62,5.39,5.39,0,0,0-2.43-.54,5.65,5.65,0,0,0-5.33,3.33,8.57,8.57,0,0,0-.73,3.67v8.7a7,7,0,0,0,.78,3.34,5.48,5.48,0,0,0,2.19,2.21,6.71,6.71,0,0,0,3.26.78,6.11,6.11,0,0,0,3.2-.84,5.42,5.42,0,0,0,2.13-2.39,8.46,8.46,0,0,0,.73-3.71v-1.28h-6v-4Z"/><path d="M174.14,131.31a9.22,9.22,0,0,1-3.65-3.8,12.06,12.06,0,0,1-1.31-5.71v-8.36a12.13,12.13,0,0,1,1.26-5.71A9.14,9.14,0,0,1,174,103.9a11.62,11.62,0,0,1,10.87,0,9.12,9.12,0,0,1,3.66,3.8,12,12,0,0,1,1.31,5.7v8.36a12.2,12.2,0,0,1-1.26,5.72,9.37,9.37,0,0,1-3.63,3.83,11.64,11.64,0,0,1-10.88,0Zm8.64-3.59a5.52,5.52,0,0,0,2.15-2.34,7.68,7.68,0,0,0,.74-3.5v-8.64a7.71,7.71,0,0,0-.77-3.5,5.62,5.62,0,0,0-2.16-2.32,6.73,6.73,0,0,0-6.43,0,5.52,5.52,0,0,0-2.15,2.34,7.75,7.75,0,0,0-.74,3.51v8.64a7.67,7.67,0,0,0,.77,3.49,5.58,5.58,0,0,0,2.16,2.33,6.35,6.35,0,0,0,3.22.81A6.12,6.12,0,0,0,182.78,127.72Z"/><path class="f4e51806-32fc-4acd-b9a3-53e07dd6614c" d="M48.67.33h8.82c4.52,0,7.62,2.5,7.62,6.88s-3.06,7.05-7.86,7.05H50.61V25H48.67ZM50.61,12.5h6.81c4,0,5.65-2.12,5.65-5.22,0-3.32-2.19-5.19-5.51-5.19h-7Z"/><path class="f4e51806-32fc-4acd-b9a3-53e07dd6614c" d="M72.91,13.49V25H71V.33h8.86c4.87,0,7.44,2.61,7.44,6.49a5.6,5.6,0,0,1-4.62,5.79c2.54.6,4.23,2.25,4.23,6.45v1c0,1.73-.14,4.06.32,5h-2c-.46-1-.35-3-.35-5.15v-.63c0-4.06-1.2-5.75-5.93-5.75Zm0-1.77h6c4.34,0,6.35-1.62,6.35-4.86,0-3-2-4.77-5.82-4.77H72.91Z"/><path class="f4e51806-32fc-4acd-b9a3-53e07dd6614c" d="M114.72,12.5c0,6.74-3.6,12.88-11.22,12.88-7,0-11-5.61-11-12.7S96.41,0,103.75,0C110.52,0,114.72,5.3,114.72,12.5Zm-20.18.07c0,5.68,3.14,11,9.07,11,6.38,0,9.06-5.22,9.06-11.07s-3-10.8-9-10.8C97.33,1.74,94.54,7,94.54,12.57Z"/><path class="f4e51806-32fc-4acd-b9a3-53e07dd6614c" d="M124.92,18.29c0,5.5-2.44,7.09-5.72,7.09a10.63,10.63,0,0,1-2.11-.21V23.44a12.25,12.25,0,0,0,2.18.17c3.32,0,3.74-2.57,3.74-5.36V.33h1.91Z"/><path class="f4e51806-32fc-4acd-b9a3-53e07dd6614c" d="M147,12.89H134.4V23.26h13.8L148,25H132.54V.33h15.13V2.09H134.44v9H147Z"/><path class="f4e51806-32fc-4acd-b9a3-53e07dd6614c" d="M160.16,2.09h-8.29V.33h18.56V2.09H162.1V25h-1.94Z"/><path class="f4e51806-32fc-4acd-b9a3-53e07dd6614c" d="M175.12,18.39c.74,3.28,2.93,5.22,7,5.22,4.51,0,6.24-2.26,6.24-4.94s-1.24-4.51-6.67-5.85c-5.22-1.31-7.48-3-7.48-6.56C174.2,3,176.57,0,181.86,0s7.72,3.31,8,6.31h-2c-.57-2.64-2.3-4.55-6.18-4.55-3.56,0-5.5,1.66-5.5,4.41s1.62,3.78,6.17,4.9c7,1.73,8,4.52,8,7.48,0,3.64-2.65,6.78-8.37,6.78-6.17,0-8.43-3.6-8.89-6.92Z"/></g></g><path class="ad6a752a-922b-456f-8751-9fedbd2dcc4e" d="M222.65,93.7c-4.59,0-9.18,0-13.77,0-.58,0-.83,0-.83-.76q0-25.95,0-51.88c0-.75.14-1,.95-1,3.65.25,7.3.35,10.94.68a149.47,149.47,0,0,1,18.35,2.82,106.54,106.54,0,0,1,17.87,5.18c1.94.8,2.28,1.27,2.22,3.33a99.06,99.06,0,0,1-3.31,23.66c-4.62,16.73-13,31.08-26.47,42.27a88.19,88.19,0,0,1-19.7,12.36c-.74.34-.9.18-.9-.6q.06-7.61,0-15.23c0-.71.27-.93.86-1.1a19.53,19.53,0,0,0,12.54-10.84c1.36-2.82,1.78-5.83,2.39-8.91Z"/><path class="ad6a752a-922b-456f-8751-9fedbd2dcc4e" d="M224.15,63.4a22.65,22.65,0,0,1,14.2,2.84c.83.48.63.73,0,1.16a17.66,17.66,0,0,1-9.71,3,20.9,20.9,0,0,1-13.3-3.92A20,20,0,0,1,224.15,63.4Z"/></g></g></svg>