<svg xmlns="http://www.w3.org/2000/svg" viewBox="0 0 259.36 104.56"><defs><style>.a3427ba8-b3a7-49fa-b6dc-665d81a59a70{fill:none;stroke:#000;stroke-miterlimit:10;stroke-width:3px;}</style></defs><g id="bb700e76-fb98-494b-b2c4-104e7dc2b4c2" data-name="Calque 2"><g id="bbb0703c-ff7a-49f7-b41f-abbdfc1d7483" data-name="Calque 1"><g id="e2e3f0f9-45f6-4687-8489-68d1cf9da839" data-name="faca812d-ae30-4cbc-bd6a-78644388012e"><g id="ae866d28-2a72-4d2e-8d67-7a69b8096594" data-name="ab1496f1-f802-48dd-8ccd-a1f6a1364771"><g id="f404b2b2-644d-47a2-8442-6b7155c6dbf1" data-name="a5c0d828-d897-4da1-96b6-4940e206f5c3"><g id="e46ec30d-18fb-4bc3-bf12-554086432d40" data-name="adcf7430-9906-43fe-bab0-4fce2d2a74ad"><rect x="2.1" width="29.22" height="6.11"/><path d="M2.13,11.74H8.5l.18,45.43H2.3Zm3.09,0,26.1-.1V17.7l-26.09.1ZM5.3,31.57,28,31.49v6.06l-22.66.09ZM5.37,51.1l26.1-.1v6.06l-26.09.1Z"/><path d="M71.52,32.45v7.93a19.42,19.42,0,0,1-1.93,8.93,14.25,14.25,0,0,1-5.56,6,16.08,16.08,0,0,1-8.35,2.14,17.19,17.19,0,0,1-8.46-2,13.85,13.85,0,0,1-5.66-5.59,16.93,16.93,0,0,1-2-8.39L39.5,28.1a19.34,19.34,0,0,1,1.94-8.91,14.16,14.16,0,0,1,5.55-6,16.31,16.31,0,0,1,8.36-2.14,15.81,15.81,0,0,1,7.21,1.64,15.46,15.46,0,0,1,5.53,4.72,17.66,17.66,0,0,1,3,7.08H64.18a9.85,9.85,0,0,0-1.92-3.92,9.05,9.05,0,0,0-3.17-2.49,8.67,8.67,0,0,0-3.75-.84,9,9,0,0,0-4.93,1.36,8.82,8.82,0,0,0-3.27,3.78A12.87,12.87,0,0,0,46,28.08v13.4a10.68,10.68,0,0,0,1.2,5.14A8.49,8.49,0,0,0,50.67,50a10.26,10.26,0,0,0,5,1.2,9.47,9.47,0,0,0,4.93-1.29,8.45,8.45,0,0,0,3.27-3.68A13.15,13.15,0,0,0,65,40.53v-2H55.78V32.44Z"/><path d="M92.25,11.4h5.44l16.92,45.37h-6.87L95,20.17,82.55,56.87H75.68ZM83.33,40.84l23.91-.09v6.06l-23.9.09Z"/><path d="M125.69,55.19a13,13,0,0,1-5.48-5.76,20.39,20.39,0,0,1-1.91-9.13l-.11-29h6.38l.11,29.21q0,5,2.53,7.68a9.1,9.1,0,0,0,7.07,2.7,9.24,9.24,0,0,0,7.1-2.75q2.51-2.73,2.48-7.7l-.11-29.22h6.38l.11,29a20.47,20.47,0,0,1-1.84,9.15,13,13,0,0,1-5.45,5.8,17.7,17.7,0,0,1-8.65,2A17.42,17.42,0,0,1,125.69,55.19Z"/><path d="M170.7,30.57,182,11.06h7.16L174.25,35.68,162.14,56.57H155Zm.31,6L170,35,155.19,11.16h7.16l11,18.46,1,1.69L190,56.5h-7.16Z"/><path d="M6.67,104.16A14.62,14.62,0,0,1,3.1,103,15.34,15.34,0,0,1,0,101l2.56-3.17A11.74,11.74,0,0,0,6.29,100a12.88,12.88,0,0,0,4.4.71,8.85,8.85,0,0,0,5-1.21,3.8,3.8,0,0,0,1.75-3.36h0a3.49,3.49,0,0,0-.81-2.44,4.69,4.69,0,0,0-2.08-1.33,23,23,0,0,0-3.28-.79.29.29,0,0,0-.13,0H11l-.3-.06a32,32,0,0,1-4.83-1.13A6.8,6.8,0,0,1,2.67,88a7.72,7.72,0,0,1-1.34-4.82h0a8.68,8.68,0,0,1,1.21-4.69,7.69,7.69,0,0,1,3.57-3,14.43,14.43,0,0,1,5.66-1,14.73,14.73,0,0,1,3.11.33,15.77,15.77,0,0,1,3,1,17.55,17.55,0,0,1,2.94,1.7l-2.34,3.3A13.9,13.9,0,0,0,15.11,79a9.38,9.38,0,0,0-3.36-.6,7.93,7.93,0,0,0-4.69,1.22A4,4,0,0,0,5.43,83h0a3.22,3.22,0,0,0,.87,2.4,5.4,5.4,0,0,0,2.16,1.28,33.85,33.85,0,0,0,3.58.85h.75A24.22,24.22,0,0,1,17.27,89a6.88,6.88,0,0,1,3,2.41A7.75,7.75,0,0,1,21.5,96h0a8.2,8.2,0,0,1-1.26,4.62,8,8,0,0,1-3.7,2.94,15.32,15.32,0,0,1-5.84,1A18.87,18.87,0,0,1,6.67,104.16Z"/><path d="M34.13,74.66h3.53l11,29.46H44.18L35.91,80.36l-8.08,23.83H23.36ZM28.34,93.77H43.86V97.7l-15.52.06Z"/><path d="M53,74.59h3.75L71.26,97.32l-.48.53-.09-23.33h4.1L74.9,104H71.1L56.63,81.6l.49-.53.09,23h-4.1Z"/><path d="M87,103.86a15.66,15.66,0,0,1-3.57-1.21,15.34,15.34,0,0,1-3.1-2l2.57-3.18a11.61,11.61,0,0,0,3.72,2.18,12.88,12.88,0,0,0,4.4.71,8.84,8.84,0,0,0,5-1.2,3.81,3.81,0,0,0,1.75-3.37h0A3.51,3.51,0,0,0,97,93.32,4.82,4.82,0,0,0,94.89,92a23,23,0,0,0-3.28-.79h-.13a.33.33,0,0,1-.14,0L91,91.1A30.1,30.1,0,0,1,86.22,90,6.71,6.71,0,0,1,83,87.65a7.69,7.69,0,0,1-1.34-4.81h0a8.65,8.65,0,0,1,1.21-4.68,7.8,7.8,0,0,1,3.57-3,14.43,14.43,0,0,1,5.66-1,13.61,13.61,0,0,1,3.12.33,15.77,15.77,0,0,1,3,1,16.94,16.94,0,0,1,2.94,1.71l-2.34,3.29a13.63,13.63,0,0,0-3.37-1.84,9.55,9.55,0,0,0-3.3-.65,8,8,0,0,0-4.7,1.23,4,4,0,0,0-1.66,3.42h0A3.29,3.29,0,0,0,86.66,85a5.06,5.06,0,0,0,2.16,1.28,31.55,31.55,0,0,0,3.58.85h.75a25.75,25.75,0,0,1,4.48,1.28,7,7,0,0,1,3,2.42,7.71,7.71,0,0,1,1.23,4.57h0a7.63,7.63,0,0,1-5,7.55A15.37,15.37,0,0,1,91,104,20.66,20.66,0,0,1,87,103.86Z"/><path d="M118.83,74.34H123l.11,29.5H119Zm2,0,16.94-.06v3.93l-17,.07Zm0,12.89,14.71-.06V91.1l-14.71.05Zm0,12.68,16.94-.07v3.94l-16.94.06Z"/><path d="M163.88,87.78v5.16a12.6,12.6,0,0,1-1.25,5.79,9.28,9.28,0,0,1-3.61,3.89A10.6,10.6,0,0,1,153.6,104a11.18,11.18,0,0,1-5.5-1.27,9.07,9.07,0,0,1-3.67-3.62,11.19,11.19,0,0,1-1.32-5.46V85a12.6,12.6,0,0,1,1.25-5.79A9.28,9.28,0,0,1,148,75.3a10.41,10.41,0,0,1,5.42-1.39A10.12,10.12,0,0,1,158.06,75a9.93,9.93,0,0,1,3.59,3,11.48,11.48,0,0,1,2,4.6h-4.48a6.37,6.37,0,0,0-1.25-2.54,5.91,5.91,0,0,0-2.06-1.62,5.68,5.68,0,0,0-2.43-.55,5.87,5.87,0,0,0-3.21.89,5.79,5.79,0,0,0-2.12,2.45,8.57,8.57,0,0,0-.73,3.67v8.7a7,7,0,0,0,.78,3.33,5.57,5.57,0,0,0,2.19,2.22,6.48,6.48,0,0,0,3.26.77,6.1,6.1,0,0,0,3.2-.83,5.54,5.54,0,0,0,2.13-2.39,8.5,8.5,0,0,0,.73-3.72V91.76h-6v-4Z"/><path d="M174.14,102.58a9.16,9.16,0,0,1-3.65-3.8,12,12,0,0,1-1.31-5.7V84.72A12.17,12.17,0,0,1,170.41,79,9.18,9.18,0,0,1,174,75.18a11.64,11.64,0,0,1,10.87-.05,9.14,9.14,0,0,1,3.66,3.81,12,12,0,0,1,1.31,5.7V93a12.2,12.2,0,0,1-1.26,5.72,9.34,9.34,0,0,1-3.63,3.82,11.64,11.64,0,0,1-10.88,0ZM182.78,99a5.52,5.52,0,0,0,2.15-2.34,7.68,7.68,0,0,0,.74-3.5V84.52a7.71,7.71,0,0,0-.77-3.5,5.58,5.58,0,0,0-2.16-2.33,6.68,6.68,0,0,0-6.43,0A5.52,5.52,0,0,0,174.16,81a7.68,7.68,0,0,0-.74,3.5V93.2a7.58,7.58,0,0,0,.77,3.5,5.51,5.51,0,0,0,2.16,2.3A6.68,6.68,0,0,0,182.78,99Z"/></g></g></g><g id="f9c6a8b3-2825-4bde-bb12-315ebe1139d8" data-name="bd7b1162-2449-4826-91f8-988d89ffb837"><path class="a3427ba8-b3a7-49fa-b6dc-665d81a59a70" d="M207.79,75.73V50c0-.71.27-.75.83-.75h13.89c.89,0,1-.23.81-1a33.93,33.93,0,0,0-2.14-7.66,19.32,19.32,0,0,0-12.55-11,1,1,0,0,1-.88-1.1.28.28,0,0,1,0-.09V13.49c0-.88.16-1.06,1-.67A87.33,87.33,0,0,1,227.5,24.49c13.86,11.28,22.48,25.86,27.14,43A99.22,99.22,0,0,1,257.83,91,2.39,2.39,0,0,1,256,93.72a94.72,94.72,0,0,1-16.32,4.93,155.31,155.31,0,0,1-16.45,2.83c-4.74.55-9.49.84-14.25,1-.91,0-1.22-.18-1.21-1.17V75.7Z"/><path class="a3427ba8-b3a7-49fa-b6dc-665d81a59a70" d="M215.08,76.33a18.59,18.59,0,0,1,8-3.51,20.15,20.15,0,0,1,13.08,1.53c.86.43,2.21.85,2.22,1.67,0,.65-1.42,1.07-2.29,1.44-6.8,2.91-13.51,2.89-20.12-.58Z"/></g></g></g></g></svg>