<svg xmlns="http://www.w3.org/2000/svg" viewBox="0 0 260.95 104.55"><g id="b82b0faa-df9f-4087-bacd-e2c20909988e" data-name="Calque 2"><g id="a32b296c-b09e-4d02-96ef-69db747fb287" data-name="Calque 1"><rect x="2.1" width="29.22" height="6.11"/><path d="M2.13,11.74l6.37,0,.18,45.43-6.38,0Zm3.09,0,26.1-.1,0,6.06-26.09.1ZM5.3,31.57,28,31.49l0,6.06-22.66.09ZM5.37,51.1,31.47,51l0,6.06-26.09.1Z"/><path d="M71.52,32.45l0,7.93a19.41,19.41,0,0,1-1.93,8.93,14.26,14.26,0,0,1-5.56,6,16.18,16.18,0,0,1-8.35,2.14,17.22,17.22,0,0,1-8.46-1.95,13.85,13.85,0,0,1-5.66-5.59,17,17,0,0,1-2-8.39L39.5,28.1a19.3,19.3,0,0,1,1.94-8.91,14.26,14.26,0,0,1,5.55-6,16.32,16.32,0,0,1,8.36-2.14,15.81,15.81,0,0,1,7.21,1.64,15.3,15.3,0,0,1,5.53,4.72,17.71,17.71,0,0,1,3,7.08l-6.91,0a9.8,9.8,0,0,0-1.92-3.92,9.13,9.13,0,0,0-3.17-2.49,8.69,8.69,0,0,0-3.75-.84,9,9,0,0,0-4.93,1.36,8.83,8.83,0,0,0-3.27,3.78A13,13,0,0,0,46,28.08l.05,13.4a10.69,10.69,0,0,0,1.2,5.14A8.47,8.47,0,0,0,50.67,50a10.21,10.21,0,0,0,5,1.2,9.51,9.51,0,0,0,4.93-1.29,8.45,8.45,0,0,0,3.27-3.68A13.17,13.17,0,0,0,65,40.53v-2l-9.22,0,0-6.09Z"/><path d="M92.25,11.4l5.44,0,16.92,45.37-6.87,0L95,20.17,82.55,56.87l-6.87,0ZM83.33,40.84l23.91-.09,0,6.06-23.9.09Z"/><path d="M125.69,55.19a13,13,0,0,1-5.48-5.76,20.39,20.39,0,0,1-1.91-9.13l-.11-29,6.38,0,.11,29.21q0,5,2.53,7.68a9.1,9.1,0,0,0,7.07,2.7,9.24,9.24,0,0,0,7.1-2.75q2.51-2.73,2.48-7.7l-.11-29.22,6.38,0,.11,29a20.55,20.55,0,0,1-1.84,9.15,13,13,0,0,1-5.45,5.8,17.75,17.75,0,0,1-8.65,2A17.45,17.45,0,0,1,125.69,55.19Z"/><path d="M170.7,30.57,182,11.06l7.16,0L174.25,35.68,162.14,56.57l-7.15,0Zm.31,6L170,35,155.19,11.16l7.16,0,11,18.46,1,1.69,15.63,25.19-7.16,0Z"/><path d="M6.67,104.16A14.85,14.85,0,0,1,3.1,103a15.13,15.13,0,0,1-3.1-2l2.56-3.17A11.83,11.83,0,0,0,6.29,100a12.81,12.81,0,0,0,4.4.71,8.85,8.85,0,0,0,5-1.21,3.79,3.79,0,0,0,1.75-3.36v0a3.51,3.51,0,0,0-.81-2.44,4.73,4.73,0,0,0-2.08-1.33,22.68,22.68,0,0,0-3.28-.79.27.27,0,0,0-.13,0l-.13,0-.3-.06a31.7,31.7,0,0,1-4.83-1.13A6.78,6.78,0,0,1,2.67,88a7.74,7.74,0,0,1-1.34-4.82h0a8.68,8.68,0,0,1,1.21-4.69,7.68,7.68,0,0,1,3.57-3,14.33,14.33,0,0,1,5.66-1,14.73,14.73,0,0,1,3.11.33,15.66,15.66,0,0,1,3,1,17.58,17.58,0,0,1,2.94,1.7l-2.34,3.3a13.94,13.94,0,0,0-3.37-1.85,9.43,9.43,0,0,0-3.36-.6,7.93,7.93,0,0,0-4.69,1.22A4,4,0,0,0,5.43,83v0A3.23,3.23,0,0,0,6.3,85.4a5.31,5.31,0,0,0,2.16,1.28,32.78,32.78,0,0,0,3.58.85l.15,0,.16,0,.22,0,.22,0A24.27,24.27,0,0,1,17.27,89a6.94,6.94,0,0,1,3,2.41,7.7,7.7,0,0,1,1.23,4.57v0a8.23,8.23,0,0,1-1.26,4.62,8,8,0,0,1-3.7,2.94,15.19,15.19,0,0,1-5.84,1A18.78,18.78,0,0,1,6.67,104.16Z"/><path d="M34.13,74.66h3.53l11,29.46H44.18L35.91,80.36l-8.08,23.83H23.36ZM28.34,93.77l15.52,0v3.93l-15.52.06Z"/><path d="M53,74.59h3.75L71.26,97.32l-.48.53-.09-23.33h4.1L74.9,104H71.1L56.63,81.6l.49-.53.09,23-4.1,0Z"/><path d="M87,103.86a15.48,15.48,0,0,1-3.57-1.21,14.94,14.94,0,0,1-3.1-2l2.57-3.18a11.49,11.49,0,0,0,3.72,2.18,12.81,12.81,0,0,0,4.4.71,8.84,8.84,0,0,0,5-1.2,3.82,3.82,0,0,0,1.75-3.37v0A3.52,3.52,0,0,0,97,93.32,4.85,4.85,0,0,0,94.89,92a23,23,0,0,0-3.28-.79l-.13,0a.32.32,0,0,1-.14,0L91,91.1A30.12,30.12,0,0,1,86.22,90,6.79,6.79,0,0,1,83,87.65a7.71,7.71,0,0,1-1.34-4.81v0a8.62,8.62,0,0,1,1.21-4.68,7.8,7.8,0,0,1,3.57-3,14.38,14.38,0,0,1,5.66-1,13.61,13.61,0,0,1,3.12.33,15.53,15.53,0,0,1,3,1,17,17,0,0,1,2.94,1.71l-2.34,3.29a13.88,13.88,0,0,0-3.37-1.84A9.61,9.61,0,0,0,92.15,78a8,8,0,0,0-4.7,1.23,4,4,0,0,0-1.66,3.42v0a3.3,3.3,0,0,0,.87,2.39,5.21,5.21,0,0,0,2.16,1.28,30.59,30.59,0,0,0,3.58.85l.16,0,.15,0,.22,0,.22,0a25.08,25.08,0,0,1,4.48,1.28,6.91,6.91,0,0,1,3,2.42,7.68,7.68,0,0,1,1.23,4.57v0a8.1,8.1,0,0,1-1.26,4.62,8,8,0,0,1-3.69,2.93,15.27,15.27,0,0,1-5.85,1A20.14,20.14,0,0,1,87,103.86Z"/><path d="M118.83,74.34l4.14,0,.11,29.5-4.14,0Zm2,0,16.94-.06,0,3.93-17,.07Zm0,12.89,14.71-.06V91.1l-14.71.05Zm0,12.68,16.94-.07v3.94l-16.94.06Z"/><path d="M163.88,87.78l0,5.16a12.59,12.59,0,0,1-1.25,5.79,9.24,9.24,0,0,1-3.61,3.89,10.58,10.58,0,0,1-5.42,1.39,11.2,11.2,0,0,1-5.5-1.27,9.07,9.07,0,0,1-3.67-3.62,11.2,11.2,0,0,1-1.32-5.46l0-8.7a12.59,12.59,0,0,1,1.25-5.79A9.25,9.25,0,0,1,148,75.3a10.48,10.48,0,0,1,5.42-1.39A10.12,10.12,0,0,1,158.06,75,9.88,9.88,0,0,1,161.65,78a11.48,11.48,0,0,1,2,4.6l-4.48,0a6.37,6.37,0,0,0-1.25-2.54,5.93,5.93,0,0,0-2.06-1.62,5.6,5.6,0,0,0-2.43-.55,5.9,5.9,0,0,0-3.21.89,5.78,5.78,0,0,0-2.12,2.45,8.44,8.44,0,0,0-.73,3.67l0,8.7a6.94,6.94,0,0,0,.78,3.33,5.57,5.57,0,0,0,2.19,2.22,6.52,6.52,0,0,0,3.26.77,6.08,6.08,0,0,0,3.2-.83,5.46,5.46,0,0,0,2.13-2.39,8.52,8.52,0,0,0,.73-3.72V91.76l-6,0v-4Z"/><path d="M174.14,102.58a9.16,9.16,0,0,1-3.65-3.8,12.1,12.1,0,0,1-1.31-5.7l0-8.36A12.2,12.2,0,0,1,170.41,79,9.17,9.17,0,0,1,174,75.18a11.65,11.65,0,0,1,10.87-.05,9.15,9.15,0,0,1,3.66,3.81,12.1,12.1,0,0,1,1.31,5.7l0,8.36a12.2,12.2,0,0,1-1.26,5.72,9.29,9.29,0,0,1-3.63,3.82,11.64,11.64,0,0,1-10.88,0ZM182.78,99a5.54,5.54,0,0,0,2.15-2.34,7.67,7.67,0,0,0,.74-3.5l0-8.64a7.74,7.74,0,0,0-.77-3.5,5.66,5.66,0,0,0-2.16-2.33,6.31,6.31,0,0,0-3.22-.81,6.24,6.24,0,0,0-3.21.84,5.54,5.54,0,0,0-2.15,2.34,7.67,7.67,0,0,0-.74,3.5l0,8.64a7.62,7.62,0,0,0,.77,3.5A5.54,5.54,0,0,0,176.35,99a6.68,6.68,0,0,0,6.43,0Z"/><path d="M209,28.43V11c.84.35,1.54.61,2.2.93q36.43,17.65,46.62,56.86a102.51,102.51,0,0,1,3.1,23.67,2.44,2.44,0,0,1-1.75,2.69,112,112,0,0,1-20.91,6,165.36,165.36,0,0,1-27.16,3.15c-.6,0-1.2,0-2.05,0v-2.12q0-25.77,0-51.53c0-.49,0-1,0-1.47l-.05,0h16.36A54.14,54.14,0,0,0,223.73,42c-2.61-7-7.38-11.73-14.75-13.61Zm7.47,48.7c7.31,4.8,18.13,4.24,24.68-.34C235.1,71.62,223.44,71.74,216.49,77.13Z"/></g></g></svg>